<svg width="100" height="33" viewBox="0 0 100 33" fill="none" xmlns="http://www.w3.org/2000/svg">
<path d="M45.5714 27.3079H47.1671V28.1165H45.5714V31.3831C45.5714 31.922 45.8709 32.1917 46.2697 32.1917C46.5354 32.1917 46.7676 32.1237 47.0333 31.9554L47.3331 32.6292C46.9013 32.8986 46.5355 33.0003 46.1036 33.0003C45.2066 33.0003 44.6077 32.4612 44.6075 31.4173V28.1165H43.5118V27.3079H44.6749L44.9073 25.7581H45.5714V27.3079ZM40.5538 27.2064C42.0158 27.2064 43.0127 28.2168 43.0128 29.9681C43.0128 30.1028 42.9796 30.305 42.9796 30.4398H38.9259C39.0256 31.5174 39.6568 32.1915 40.587 32.1917C41.2184 32.1917 41.6844 31.922 42.0167 31.2484L42.88 31.5511C42.4813 32.4942 41.6836 32.9993 40.587 32.9993C38.959 32.9991 37.9288 31.7194 37.9288 30.1028C37.9289 28.4864 38.9259 27.2065 40.5538 27.2064ZM58.3644 27.2064C59.9925 27.2064 61.0225 28.4863 61.0226 30.1028C61.0226 31.7196 60.0258 32.9993 58.3644 32.9993C56.7364 32.9991 55.7062 31.7194 55.7062 30.1028C55.7063 28.4864 56.7033 27.2066 58.3644 27.2064ZM34.9054 27.2405C36.168 27.2406 36.9318 28.015 36.9318 29.6653V32.9661H35.9689V29.7327C35.9689 28.6551 35.4703 28.1499 34.6398 28.1497C33.643 28.1497 33.011 28.9241 33.0109 29.9007V32.9661H32.048V30.305C32.048 29.2946 32.048 28.3178 31.9816 27.3411H32.9113L33.0109 28.2845H33.0773C33.476 27.6109 34.1411 27.2405 34.9054 27.2405ZM49.8253 31.7874H49.8917L50.9542 27.3079H52.1505L53.1808 31.7874H53.2472L54.3771 27.3079H55.3409L53.8126 32.8987H52.6163L51.5529 28.2845H51.4865L50.3898 32.8987H49.2267L47.6984 27.3079H48.6954L49.8253 31.7874ZM65.2433 28.1497H64.8448C63.9809 28.1497 63.0499 28.6888 63.0499 30.3392V32.8987H62.0861V30.305C62.0861 29.2946 62.0861 28.3178 62.0197 27.3411H62.9503L63.0831 28.4525H63.1495C63.4818 27.6779 64.0806 27.2405 64.8448 27.2405C64.9444 27.207 65.0441 27.2064 65.2433 27.2064V28.1497ZM67.004 29.9691L69.463 27.3079H70.7257L68.1339 29.9691L70.7589 32.8987H69.463L66.9708 30.1038V32.8987H66.0402V25.22H67.004V29.9691ZM58.3644 28.0823C57.3678 28.0825 56.7033 28.8906 56.7032 30.1028C56.7032 31.3152 57.3677 32.1241 58.3644 32.1243C59.3612 32.1243 60.0265 31.3154 60.0265 30.1028C60.0264 28.8905 59.3612 28.0823 58.3644 28.0823ZM40.5538 28.015C39.657 28.0151 39.0589 28.6547 38.9259 29.6312H42.0831C41.9834 28.5873 41.4177 28.015 40.5538 28.015ZM2.30774 5.34796C3.43749 1.44101 7.49136 -0.849739 11.379 0.295227C13.2731 0.83413 14.8353 2.0809 15.7657 3.83234C16.6295 5.41526 16.8617 7.23438 16.4962 8.98566L16.6622 9.01886C18.6227 9.28831 20.3176 10.2991 21.5138 11.8821C22.71 13.4652 23.2083 15.4184 22.9425 17.3382C22.6767 19.3253 21.6799 21.0427 20.1183 22.2552C18.5566 23.4677 16.6295 23.9738 14.7023 23.7044L6.29504 22.5589C4.86636 22.3568 3.60417 21.5481 2.87317 20.3021L0.67981 16.6312C0.0152352 15.5197 -0.18473 14.1381 0.180786 12.8919L2.30774 5.34796ZM31.7482 6.02081C31.9475 6.02081 32.1474 6.05451 32.38 6.0882C32.5793 6.12187 32.7784 6.18981 32.9113 6.25714V12.555C33.3099 12.0162 33.8416 11.612 34.4396 11.3089C35.0709 11.0058 35.7691 10.8714 36.5665 10.8714C37.5966 10.8714 38.5269 11.1074 39.3575 11.6126C40.1883 12.1178 40.8533 12.7916 41.3517 13.6673C41.85 14.5429 42.0831 15.5194 42.0831 16.6644C42.0831 17.7759 41.8169 18.7867 41.3185 19.6624C40.8201 20.5381 40.1219 21.2119 39.2247 21.7171C38.3277 22.2222 37.2977 22.4573 36.1349 22.4573C34.9719 22.4573 33.9744 22.2223 33.1105 21.7171C32.2467 21.2119 31.6157 20.5043 31.1505 19.5276C30.6853 18.5846 30.4523 17.4389 30.4523 16.1253V7.2005H30.4191C30.4191 6.83 30.5527 6.52661 30.7853 6.32452C31.0178 6.12258 31.3497 6.02087 31.7482 6.02081ZM49.1271 10.8714C50.5227 10.8714 51.6196 11.208 52.4835 11.848C53.3474 12.4879 53.7794 13.3977 53.7794 14.5091C53.7794 15.6541 53.2809 16.4961 52.2843 17.0687C51.2875 17.6412 49.6921 17.9104 47.5323 17.9105H46.8009C46.5021 17.9104 46.2033 17.8773 45.9376 17.8773C46.0373 18.618 46.4355 19.2242 47.0997 19.6956C47.7642 20.1334 48.562 20.3694 49.5587 20.3694C50.622 20.3694 51.6196 20.1003 52.4835 19.595L53.38 21.346C53.0478 21.5481 52.6821 21.7509 52.1837 21.9193C51.7186 22.0876 51.1868 22.2216 50.6554 22.3226C50.0574 22.3899 49.5258 22.4573 49.0275 22.4573C47.8978 22.4573 46.9011 22.2218 46.004 21.7503C45.1401 21.2788 44.4419 20.605 43.9767 19.763C43.4784 18.9211 43.2453 17.9109 43.2452 16.7659C43.2452 15.6208 43.5115 14.6099 44.0099 13.7005C44.5083 12.8248 45.2065 12.1178 46.1036 11.6126C47.0008 11.1074 47.9974 10.8714 49.1271 10.8714ZM98.837 6.02081C99.0364 6.02081 99.2363 6.05451 99.4689 6.0882C99.6681 6.12188 99.8672 6.18981 100 6.25714V16.1253H99.9669C99.9669 17.4389 99.7349 18.5509 99.2697 19.5276C98.8045 20.4707 98.1394 21.2119 97.3087 21.7171C96.4449 22.2222 95.4481 22.4573 94.2853 22.4573C93.1223 22.4573 92.0584 22.2223 91.1945 21.7171C90.2974 21.2119 89.6001 20.538 89.1017 19.6624C88.6033 18.7867 88.337 17.7759 88.337 16.6644C88.3371 15.553 88.5701 14.5429 89.0685 13.6673C89.5669 12.7917 90.231 12.1178 91.0616 11.6126C91.8923 11.1074 92.8227 10.8715 93.8527 10.8714C94.6501 10.8714 95.3483 11.0058 95.9796 11.3089C96.6108 11.612 97.1092 12.0163 97.5079 12.555V7.2005C97.5079 6.83 97.6415 6.52661 97.8741 6.32452C98.1067 6.12259 98.4385 6.02086 98.837 6.02081ZM71.9884 11.1741C72.1878 11.1741 72.3876 11.2078 72.6202 11.2415C72.8195 11.2752 73.0186 11.3431 73.1515 11.4105V22.1546H70.6593V12.3528C70.6594 11.9827 70.7922 11.6798 71.0245 11.4778C71.2571 11.2758 71.5897 11.1742 71.9884 11.1741ZM80.9933 10.8714C82.0564 10.8714 82.9869 11.0733 83.7511 11.4437C84.5486 11.8142 85.1473 12.3872 85.5792 13.0609C86.0111 13.7681 86.2433 14.5769 86.2433 15.5198V22.1546H83.7843V16.1595C83.7843 15.1828 83.5522 14.4079 83.087 13.9026C82.6218 13.3974 81.9237 13.1282 80.9933 13.1282C79.1326 13.1283 78.2023 14.1387 78.2023 16.1595V22.1546H75.7433V15.5198C75.7433 14.5768 75.9764 13.7682 76.4083 13.0609C76.8403 12.3536 77.4712 11.8142 78.2355 11.4437C79.0329 11.0732 79.9301 10.8714 80.9933 10.8714ZM59.8273 6.02081C60.0265 6.02087 60.2257 6.05454 60.4581 6.0882C60.6574 6.12185 60.8565 6.18982 60.9894 6.25714V15.1829L65.4757 11.848C65.8412 11.5449 66.2069 11.3767 66.506 11.2757C66.838 11.1747 67.1036 11.141 67.3361 11.1409C67.7347 11.1409 68.0673 11.208 68.2999 11.3763C68.5325 11.5447 68.7325 11.747 68.8322 11.9827C68.6328 12.1848 68.3001 12.4204 67.8683 12.7571C67.4363 13.094 66.9712 13.4653 66.4396 13.8694C65.9079 14.2736 65.3755 14.6777 64.8439 15.0482C64.3124 15.4185 63.8138 15.7885 63.382 16.0579C64.4785 16.9 65.5755 17.8434 66.6056 18.9212C67.6357 19.999 68.5328 21.0431 69.2638 22.0872H66.2072C65.8084 21.582 65.3423 21.0768 64.8107 20.5042C64.2458 19.9317 63.648 19.3589 63.0167 18.7864C62.3522 18.2139 61.6872 17.6754 60.9894 17.1702V22.1214H58.5304V7.2005H58.4972C58.4972 6.83 58.6308 6.52661 58.8634 6.32452C59.096 6.12247 59.4286 6.02081 59.8273 6.02081ZM15.799 11.4105C14.3701 15.7215 11.0138 18.8537 6.96008 20.0999L15.0343 21.2112C16.3301 21.4133 17.5931 21.0771 18.6232 20.2689C19.6533 19.4942 20.3174 18.3149 20.4503 17.0013C20.6497 15.6877 20.2849 14.4077 19.5206 13.3636C18.7564 12.3195 17.5929 11.6463 16.3302 11.4778L15.799 11.4105ZM36.1681 13.0941C35.2046 13.0941 34.3736 13.4308 33.7755 14.0706C33.1442 14.7105 32.8449 15.5867 32.8448 16.6644C32.8448 17.7422 33.1442 18.5845 33.7755 19.2581C34.4068 19.898 35.2045 20.2347 36.1681 20.2347C37.1317 20.2346 37.9294 19.898 38.5607 19.2581C39.192 18.6182 39.4904 17.7421 39.4904 16.6644C39.4903 15.5867 39.192 14.7105 38.5607 14.0706C37.9294 13.4308 37.1316 13.0941 36.1681 13.0941ZM94.1857 13.0941C93.2222 13.0941 92.4244 13.3973 91.7931 14.0706C91.1618 14.7105 90.8625 15.5867 90.8624 16.6644C90.8624 17.7422 91.1617 18.5845 91.7931 19.2581C92.4244 19.8979 93.2221 20.2347 94.1857 20.2347C95.149 20.2346 95.9793 19.8978 96.5773 19.2581C97.2086 18.6182 97.5079 17.7422 97.5079 16.6644C97.5079 15.5867 97.2086 14.7442 96.5773 14.0706C95.9461 13.4311 95.1489 13.0941 94.1857 13.0941ZM13.2404 11.2083C8.85424 11.2757 4.93307 14.0373 3.30481 18.18C7.62449 18.1126 11.6121 15.3848 13.2404 11.2083ZM49.0607 12.7913C48.097 12.7913 47.3326 13.0947 46.7345 13.7347C46.1366 14.3409 45.8039 15.1492 45.7706 16.1595C46.0032 16.1595 46.2695 16.1927 46.5353 16.1927H47.5988C50.0908 16.1927 51.3204 15.6201 51.3204 14.4749C51.3203 13.9699 51.1205 13.5661 50.6886 13.263C50.2899 12.9599 49.7252 12.7913 49.0607 12.7913ZM10.6818 2.72003C8.12315 1.94536 5.43135 3.46152 4.70032 6.05499L2.17493 14.9466C4.70026 10.9724 9.18605 8.54737 14.004 8.74933C14.3363 7.5032 14.1704 6.18987 13.5724 5.07843C12.9411 3.9333 11.9112 3.09055 10.6818 2.72003ZM71.8888 6.29034C72.3208 6.29034 72.6864 6.42569 72.9523 6.72882C73.2179 7.03181 73.3838 7.3684 73.3839 7.80597C73.3839 8.1891 73.2826 8.52121 73.0568 8.77863L72.8478 8.98956C72.5938 9.21854 72.2669 9.32159 71.8888 9.32159C71.4568 9.32159 71.0911 9.18722 70.8253 8.88409C70.5595 8.58099 70.3937 8.24377 70.3937 7.80597C70.3938 7.36839 70.5265 6.99818 70.8253 6.72882C71.0911 6.42569 71.4568 6.29035 71.8888 6.29034Z" fill="white"/>
</svg>
